<svg
	width="12"
	height="12"
	viewBox="0 0 12 12"
	fill="none"
	xmlns="http://www.w3.org/2000/svg"
	class="w-3 aspect-square relative bottom-[1.4rem] left-1 select-none"
>
	<path
		id="Icon"
		d="M4.73849 11.705C5.26151 11.705 5.6569 11.5042 5.92469 11.1025L11.7176 2.37239C11.8138 2.23013 11.8849 2.08996 11.931 1.95189C11.977 1.80963 12 1.67364 12 1.54394C12 1.1841 11.8745 0.887033 11.6234 0.652723C11.3766 0.41423 11.0711 0.294983 10.7071 0.294983C10.4561 0.294983 10.2427 0.345192 10.0669 0.445611C9.8954 0.541845 9.73222 0.709209 9.57741 0.947703L4.71339 8.58578L2.27824 5.66737C2.01464 5.36193 1.6841 5.20921 1.28661 5.20921C0.914226 5.20921 0.606695 5.32846 0.364017 5.56695C0.121339 5.80544 0 6.10461 0 6.46444C0 6.62762 0.0251046 6.78243 0.0753138 6.92887C0.129707 7.07113 0.228033 7.21967 0.370293 7.37448L3.60251 11.1841C3.89958 11.5314 4.27824 11.705 4.73849 11.705Z"
		fill="white"
	/>
</svg>
